<svg width="152" height="32" viewBox="0 0 152 32" fill="none" xmlns="http://www.w3.org/2000/svg">
<path d="M81.2784 8.79809C82.4095 8.79809 83.3264 7.88119 83.3264 6.75012C83.3264 5.61906 82.4095 4.70215 81.2784 4.70215C80.1474 4.70215 79.2305 5.61906 79.2305 6.75012C79.2305 7.88119 80.1474 8.79809 81.2784 8.79809Z" fill="#0D0536"/>
<path d="M48.9433 6.75781H45.6006V23.4249H48.9433V6.75781Z" fill="#0D0536"/>
<path d="M59.223 10.0068C58.4406 9.99941 57.6663 10.166 56.9562 10.4946C56.2883 10.8025 55.7032 11.2647 55.249 11.8432V10.1969H51.9062V23.428H55.249V16.1184C55.249 15.0687 55.5156 14.2617 56.0488 13.6974C56.3326 13.41 56.6738 13.1857 57.0502 13.0392C57.4266 12.8928 57.8297 12.8274 58.2331 12.8474C58.6317 12.8274 59.0299 12.8929 59.4011 13.0395C59.7722 13.1861 60.1078 13.4105 60.3851 13.6974C60.9087 14.2617 61.1705 15.0687 61.1705 16.1184V23.428H64.4882V15.6665C64.4882 13.8851 64.0016 12.4959 63.0284 11.4988C62.5314 11.001 61.9368 10.6114 61.2818 10.3546C60.6269 10.0978 59.9259 9.97941 59.223 10.0068Z" fill="#0D0536"/>
<path d="M77.3999 19.654C77.4022 20.387 77.1739 21.1023 76.7472 21.6984C76.3033 22.3172 75.6961 22.8003 74.9933 23.0936L74.9323 23.1222C74.0576 23.4792 73.1188 23.6526 72.1742 23.6316C71.3303 23.6439 70.491 23.5054 69.6958 23.2227C69.5483 23.1715 69.4034 23.1129 69.2618 23.0469C68.4579 22.7005 67.7555 22.1549 67.221 21.4616C67.0889 21.286 66.9691 21.1014 66.8624 20.9093L69.825 19.5464C69.9421 19.9369 70.184 20.2783 70.5136 20.5183C70.9886 20.8667 71.5677 21.0437 72.1563 21.0205C72.6819 21.0471 73.2026 20.9078 73.6447 20.6224C73.6955 20.5879 73.7434 20.5495 73.7882 20.5076C73.9098 20.4013 74.007 20.27 74.0733 20.1227C74.1395 19.9754 74.1732 19.8155 74.172 19.654C74.1723 19.4453 74.1099 19.2414 73.9928 19.0687C73.8758 18.8961 73.7095 18.7625 73.5156 18.6856C73.2825 18.5724 73.043 18.473 72.7983 18.3879L72.5078 18.291C72.2926 18.2229 72.0558 18.1548 71.7904 18.0794L71.4318 17.979C70.6066 17.7924 69.7962 17.5454 69.0072 17.2402C68.3795 16.9867 67.8222 16.5856 67.3825 16.0709C66.9052 15.4695 66.6641 14.7144 66.7046 13.9476C66.6982 13.2283 66.9191 12.5254 67.3358 11.9391C67.7954 11.3012 68.4239 10.8043 69.1507 10.5044C69.3644 10.4102 69.5836 10.3288 69.807 10.2606C70.4984 10.0632 71.2149 9.96771 71.9339 9.97721C72.7067 9.96798 73.4754 10.0892 74.2078 10.3359C74.7552 10.5187 75.2637 10.8021 75.707 11.1716C76.2168 11.5907 76.6189 12.1256 76.8799 12.7317L74.0106 14.0696C73.9222 13.6864 73.7059 13.3448 73.3972 13.1012C72.9454 12.7731 72.3947 12.6098 71.8371 12.6385C71.5396 12.6338 71.2429 12.6688 70.9547 12.7425C70.7705 12.7932 70.5951 12.8718 70.4347 12.9756C70.2794 13.0744 70.1526 13.2122 70.067 13.3751C69.9815 13.5381 69.9401 13.7206 69.9469 13.9046C69.9457 14.1212 70.0087 14.3332 70.1281 14.5139C70.2475 14.6946 70.4179 14.8358 70.6176 14.9196C71.1024 15.1508 71.608 15.3357 72.1276 15.4719L72.6943 15.6262C73.4997 15.8166 74.2907 16.0635 75.0614 16.365C75.6857 16.6223 76.2374 17.0287 76.6683 17.5486C77.1544 18.1413 77.4138 18.8876 77.3999 19.654Z" fill="#0D0536"/>
<path d="M82.9502 10.1963H79.6074V23.4274H82.9502V10.1963Z" fill="#0D0536"/>
<path d="M111.652 10.6625C110.834 10.2158 109.913 9.98961 108.98 10.0061C108.158 9.99384 107.343 10.1603 106.592 10.4939C105.913 10.7909 105.321 11.2548 104.87 11.8425V4.70508H101.527V23.4273H104.87V16.1178C104.87 15.0669 105.139 14.2599 105.67 13.6968C105.954 13.4089 106.296 13.1843 106.673 13.0378C107.05 12.8913 107.454 12.8262 107.858 12.8468C108.256 12.826 108.655 12.8912 109.026 13.0379C109.397 13.1845 109.733 13.4092 110.01 13.6968C110.533 14.2599 110.799 15.0669 110.799 16.1178V23.4273H114.142V15.6659C114.171 14.6048 113.946 13.5521 113.485 12.5957C113.082 11.7819 112.444 11.1083 111.652 10.6625Z" fill="#0D0536"/>
<path d="M120.535 6.24512L117.167 7.60804V10.1976H115.593V12.945H117.167V19.322C117.167 22.0574 118.576 23.4263 121.392 23.4287H123.494V20.624H121.945C121.562 20.6575 121.18 20.5518 120.869 20.3263C120.751 20.1961 120.661 20.0428 120.605 19.8761C120.55 19.7093 120.53 19.5329 120.546 19.3579V12.945H123.505V10.1976H120.546L120.535 6.24512Z" fill="#0D0536"/>
<path d="M129.452 9.64784C129.452 8.89823 129.61 8.38175 129.929 8.09482C130.249 7.80789 130.812 7.67518 131.626 7.68953V4.87043C129.761 4.82261 128.367 5.18127 127.444 5.94642C126.521 6.71157 126.059 7.90712 126.059 9.53307V10.2002H124.557V12.9475H126.059V23.4277H129.452V12.944H131.769V10.1966H129.452V9.64784Z" fill="#0D0536"/>
<path d="M142.495 17.4808C142.495 18.5316 142.229 19.3386 141.706 19.9053C141.424 20.1926 141.085 20.4166 140.71 20.5626C140.335 20.7085 139.934 20.773 139.532 20.7518C139.134 20.7725 138.736 20.7076 138.365 20.5616C137.993 20.4156 137.658 20.1918 137.38 19.9053C136.847 19.3386 136.581 18.5304 136.581 17.4808V10.1963H133.238V17.9578C133.209 19.0136 133.443 20.0601 133.919 21.0028C134.337 21.8189 134.989 22.4919 135.791 22.936C136.636 23.3856 137.582 23.6115 138.539 23.5924C139.318 23.6 140.089 23.4333 140.795 23.1046C141.459 22.8001 142.038 22.337 142.481 21.756V23.4274H145.845V10.1963H142.481L142.495 17.4808Z" fill="#0D0536"/>
<path d="M152.001 5.75586H148.658V23.4272H152.001V5.75586Z" fill="#0D0536"/>
<path d="M98.6712 16.8075C98.6703 15.3405 98.1806 13.9157 97.2796 12.7581L98.4452 11.3737L96.0924 9.39746L94.8981 10.8321C93.9974 10.3978 93.0104 10.1723 92.0105 10.1722C91.0106 10.1721 90.0235 10.3976 89.1228 10.8317C88.222 11.2659 87.4308 11.8976 86.808 12.6798C86.1851 13.462 85.7467 14.3746 85.5253 15.3497C85.304 16.3248 85.3054 17.3373 85.5294 18.3118C85.7535 19.2862 86.1944 20.1977 86.8194 20.9782C87.4444 21.7587 88.2373 22.3882 89.1392 22.8199C90.0412 23.2515 91.0288 23.4743 92.0287 23.4714C93.9691 23.4714 95.6154 24.7232 95.6154 26.2009C95.6154 27.6786 93.9727 28.9303 92.0287 28.9303C90.0848 28.9303 88.4421 27.6822 88.4421 26.2009H85.3719C85.3719 29.4002 88.356 32.0005 92.0252 32.0005C95.6943 32.0005 98.6784 29.4002 98.6784 26.2009C98.6619 25.3447 98.4462 24.5042 98.0484 23.7459C97.6506 22.9877 97.0816 22.3325 96.3865 21.8323C97.1053 21.2075 97.6813 20.4354 98.0755 19.5685C98.4697 18.7015 98.6729 17.7599 98.6712 16.8075ZM88.4349 16.8075C88.4349 16.0981 88.6453 15.4047 89.0394 14.8148C89.4335 14.225 89.9936 13.7653 90.649 13.4938C91.3044 13.2224 92.0255 13.1513 92.7213 13.2897C93.417 13.4281 94.0561 13.7697 94.5577 14.2713C95.0593 14.7729 95.4009 15.412 95.5393 16.1077C95.6777 16.8035 95.6067 17.5246 95.3352 18.18C95.0637 18.8354 94.604 19.3955 94.0142 19.7896C93.4244 20.1837 92.7309 20.3941 92.0216 20.3941C91.0703 20.3941 90.1581 20.0162 89.4854 19.3436C88.8128 18.671 88.4349 17.7587 88.4349 16.8075Z" fill="#0D0536"/>
<path d="M15.9951 2.15317C15.9951 0.964009 16.9591 0 18.1483 0C19.3375 0 20.3015 0.964009 20.3015 2.15317C20.3015 3.34234 19.3375 4.30635 18.1483 4.30635C16.9591 4.30635 15.9951 3.34234 15.9951 2.15317Z" fill="#00D2DA"/>
<path d="M15.9941 8.91977C15.9941 7.73061 16.9581 6.7666 18.1473 6.7666C19.3365 6.7666 20.3005 7.73061 20.3005 8.91977V29.8363C20.3005 31.0255 19.3365 31.9895 18.1473 31.9895C16.9581 31.9895 15.9941 31.0255 15.9941 29.8363V8.91977Z" fill="#746FFF"/>
<path d="M23.9922 16.3016C23.9922 15.1124 24.9562 14.1484 26.1454 14.1484C27.3345 14.1484 28.2985 15.1124 28.2985 16.3016V23.0687C28.2985 24.2579 27.3345 25.2219 26.1454 25.2219C24.9562 25.2219 23.9922 24.2579 23.9922 23.0687V16.3016Z" fill="#746FFF"/>
<path d="M7.99707 8.91978C7.99707 7.73061 8.96108 6.7666 10.1502 6.7666C11.3394 6.7666 12.3034 7.73061 12.3034 8.91977V15.6869C12.3034 16.8761 11.3394 17.8401 10.1502 17.8401C8.96108 17.8401 7.99707 16.8761 7.99707 15.6869V8.91978Z" fill="#746FFF"/>
<path d="M0 15.6864C0 14.4972 0.964009 13.5332 2.15317 13.5332C3.34234 13.5332 4.30635 14.4972 4.30635 15.6864C4.30635 16.8755 3.34234 17.8395 2.15317 17.8395C0.964009 17.8395 0 16.8755 0 15.6864Z" fill="#746FFF"/>
<path d="M31.9902 16.3016C31.9902 15.1124 32.9542 14.1484 34.1434 14.1484C35.3326 14.1484 36.2966 15.1124 36.2966 16.3016C36.2966 17.4908 35.3326 18.4548 34.1434 18.4548C32.9542 18.4548 31.9902 17.4908 31.9902 16.3016Z" fill="#746FFF"/>
</svg>
